Coordinates
version=1
nRows=9
nColumns=42
inDegrees=yes

Units are S.I. units (second, meters, Newtons, ...)
If the header above contains a line with 'inDegrees', this indicates whether rotational values are in degrees (yes) or radians (no).

endheader
time	pelvis_tilt	pelvis_list	pelvis_rotation	pelvis_tx	pelvis_ty	pelvis_tz	hip_flexion_r	hip_adduction_r	hip_rotation_r	knee_angle_r	knee_adduction_r	knee_angle_r_beta	ankle_angle_r	subtalar_angle_r	mtp_angle_r	hip_flexion_l	hip_adduction_l	hip_rotation_l	knee_angle_l	knee_adduction_l	knee_angle_l_beta	ankle_angle_l	subtalar_angle_l	mtp_angle_l	lumbar_extension	lumbar_bending	lumbar_rotation	arm_flex_r	arm_add_r	arm_rot_r	elbow_flex_r	pro_sup_r	wrist_flex_r	wrist_dev_r	arm_flex_l	arm_add_l	arm_rot_l	elbow_flex_l	pro_sup_l	wrist_flex_l	wrist_dev_l
      0.50000000	     20.14387606	     -0.13630318	      2.63072664	     -0.43517281	      0.93188095	     -0.17588824	     -3.49259730	      4.46958208	    -18.08866629	     30.19656280	     -8.53695274	      0.52702944	     15.50526112	     22.54680936	     -9.17201844	    -29.54584888	      3.48125419	     -6.75720960	     26.18983727	     -1.01330979	      0.45709889	     21.27804409	     -7.94416477	     -9.17201844	    -33.73019286	     -1.88827779	      4.48152745	      5.36924263	    -10.74692201	    -35.92690610	     24.59756334	     90.00000001	      0.00000000	      0.00000000	     -0.39421610	    -18.70331886	      2.08816300	     68.08462280	     90.00000001	      0.00000000	      0.00000000
      0.51000000	     20.33232644	     -0.16096476	      2.46672349	     -0.42965144	      0.93351871	     -0.17473505	     -4.54845938	      4.56094194	    -18.84002427	     29.04454231	     -8.70702863	      0.50692289	     15.37270929	     23.90699322	     -9.13023498	    -29.53919686	      3.07005531	     -6.83458268	     27.49823362	     -0.30860680	      0.47993472	     20.06267719	     -8.62313824	     -9.13023498	    -33.90609257	     -2.00168553	      4.59214052	      5.86171459	    -10.66041365	    -36.06180994	     24.94197875	     90.00000001	      0.00000000	      0.00000000	     -0.32202378	    -18.79971036	      2.12941380	     68.15716574	     90.00000001	      0.00000000	      0.00000000
      0.52000000	     20.41894068	      0.11584059	      2.05355646	     -0.42422265	      0.93497025	     -0.17358654	     -5.34461972	      4.15436388	    -19.38600395	     28.42977023	     -8.65828409	      0.49619310	     15.50238672	     24.19092273	     -9.12419983	    -29.48900810	      3.11220905	     -6.72929979	     28.57747024	      0.44988529	      0.49877095	     19.39482748	     -8.53184984	     -9.12419983	    -33.96495507	     -2.50390366	      4.75658562	      6.37843263	    -10.63254308	    -35.99162416	     25.16902099	     90.00000001	      0.00000000	      0.00000000	     -0.23441798	    -18.80937336	      2.06480665	     68.12145474	     90.00000001	      0.00000000	      0.00000000
      0.53000000	     20.67751762	      0.30750390	      2.30740767	     -0.41856323	      0.93655719	     -0.17330254	     -6.34394681	      3.89100932	    -23.08210839	     27.04427252	     -9.92951084	      0.47201160	     15.53432837	     31.11464003	     -8.98786907	    -29.38217589	      2.71524707	     -5.83443926	     30.30286021	      1.35337116	      0.52888468	     17.13119388	    -10.77455870	     -8.98786907	    -34.20615747	     -2.60519681	      4.35803989	      6.67536961	    -10.51822647	    -34.98067390	     25.86694976	     90.00000001	      0.00000000	      0.00000000	     -0.25612525	    -18.92009991	      1.84189892	     68.43087186	     90.00000001	      0.00000000	      0.00000000
      0.54000000	     20.93135339	      0.31859582	      2.30180550	     -0.41321924	      0.93823890	     -0.17246384	     -7.48208335	      3.90684913	    -24.01779514	     25.88971897	     -9.89204565	      0.45186084	     15.31275888	     32.52529604	     -8.95343187	    -29.18561343	      2.17393752	     -5.62986177	     32.06818959	      2.18843457	      0.55969549	     15.85409532	    -11.39373280	     -8.95343187	    -34.46457613	     -2.66159651	      4.30483212	      7.16695903	    -10.44780233	    -34.59231332	     26.36389712	     90.00000001	      0.00000000	      0.00000000	     -0.19869039	    -18.95142272	      1.68151750	     68.61834098	     90.00000001	      0.00000000	      0.00000000
      0.55000000	     21.06116152	      0.55284446	      2.25695521	     -0.40797424	      0.93969077	     -0.17194465	     -8.33859123	      3.53107407	    -25.66212326	     24.96958934	    -10.05387780	      0.43580155	     14.99677276	     35.13032547	     -8.87116896	    -28.84456130	      1.89570545	     -4.89416499	     33.73426012	      3.27782644	      0.58877391	     14.34470433	    -12.63481941	     -8.87116896	    -34.61400442	     -2.91155335	      4.16074050	      7.51117958	    -10.47251195	    -33.29551328	     27.02028580	     90.00000001	      0.00000000	      0.00000000	     -0.13876087	    -18.94109355	      1.51480536	     68.74088797	     90.00000001	      0.00000000	      0.00000000
      0.56000000	     21.16610545	      0.69236571	      2.33850734	     -0.40291213	      0.94099707	     -0.17150878	     -9.23882679	      3.32672072	    -26.20810747	     24.18366693	     -9.64519451	      0.42208461	     15.14465057	     35.73528251	     -8.85564672	    -28.24757411	      1.51341861	     -4.58350031	     35.77927530	      3.88021066	      0.62446616	     13.28134727	    -12.92922856	     -8.85564672	    -34.76255026	     -3.02692239	      3.97177304	      8.05730255	    -10.38025929	    -32.98808054	     27.50834073	     90.00000001	      0.00000000	      0.00000000	     -0.07978396	    -18.98355723	      1.43328404	     68.94403274	     90.00000001	      0.00000000	      0.00000000
      0.57000000	     21.13816315	      0.67801247	      2.48982378	     -0.39798832	      0.94198209	     -0.17103700	     -9.94874579	      3.37049817	    -26.86114375	     23.31208635	     -9.41061661	      0.40687266	     14.97462339	     36.58312000	     -8.83339468	    -27.33164230	      0.87468005	     -4.36934169	     38.10179367	      4.56661244	      0.66500175	     12.28615135	    -13.76304700	     -8.83339468	    -34.77596584	     -2.96330211	      3.82537014	      8.57311422	    -10.33015015	    -32.42822097	     28.08828006	     90.00000001	      0.00000000	      0.00000000	     -0.03004241	    -18.99025314	      1.28171208	     69.18530740	     90.00000001	      0.00000000	      0.00000000
      0.58000000	     20.99735415	      0.67369231	      2.60032008	     -0.39326056	      0.94268595	     -0.17053608	    -10.42366745	      3.41185163	    -27.36013541	     22.66411880	     -9.25229407	      0.39556350	     14.77287131	     37.13306601	     -8.80466902	    -26.21433010	      0.26821879	     -4.13324498	     40.42301111	      5.23170859	      0.70551464	     11.48989203	    -14.68132584	     -8.80466902	    -34.69946214	     -2.93436870	      3.72233011	      9.06427472	    -10.30704358	    -31.57761903	     28.72368297	     90.00000001	      0.00000000	      0.00000000	      0.06989671	    -18.91387481	      1.13647476	     69.39141284	     90.00000001	      0.00000000	      0.00000000
